<svg width="64" height="64" viewBox="0 0 64 64" fill="none" xmlns="http://www.w3.org/2000/svg">
  <defs>
    <linearGradient id="bgGradient" x1="12" y1="10" x2="54" y2="52" gradientUnits="userSpaceOnUse">
      <stop stop-color="#7C8CFB" />
      <stop offset="1" stop-color="#FFB347" />
    </linearGradient>
    <linearGradient id="starGradient" x1="22" y1="20" x2="44" y2="48" gradientUnits="userSpaceOnUse">
      <stop stop-color="#FFF8E1" />
      <stop offset="1" stop-color="#FDD835" />
    </linearGradient>
  </defs>
  <rect x="6" y="6" width="52" height="52" rx="14" fill="url(#bgGradient)" stroke="white" stroke-width="3" />
  <rect x="10" y="10" width="44" height="44" rx="11" fill="white" fill-opacity="0.14" />
  <path d="M32 14.5l4.24 9.53 10.26.84c1.2.1 1.7 1.6.82 2.44l-7.78 7.34 2.16 10.16c.25 1.18-.98 2.1-2.02 1.5L32 41.78l-7.68 4.53c-1.04.6-2.27-.32-2.02-1.5l2.16-10.16-7.78-7.34c-.88-.84-.38-2.34.82-2.44l10.26-.84L32 14.5z" fill="url(#starGradient)" stroke="#0F172A" stroke-width="1.4" stroke-linejoin="round" />
  <circle cx="23" cy="22" r="3" fill="#A7F3D0" stroke="#0F172A" stroke-width="1" />
</svg>
